<svg xmlns="http://www.w3.org/2000/svg" width="1200" height="650" viewBox="0 0 1200 650">
<defs>
  <linearGradient id="bg" x1="0" x2="1" y1="0" y2="1"><stop stop-color="#081018"/><stop offset="1" stop-color="#0b0d15"/></linearGradient>
  <filter id="glow"><feGaussianBlur stdDeviation="16" result="b"/><feMerge><feMergeNode in="b"/><feMergeNode in="SourceGraphic"/></feMerge></filter>
</defs>
<rect width="1200" height="650" rx="28" fill="url(#bg)"/>
<circle cx="600" cy="325" r="135" fill="#18e6b5" opacity=".10" filter="url(#glow)"/>
<circle cx="600" cy="325" r="112" fill="none" stroke="#2ee6b2" stroke-opacity=".28"/>
<g stroke="#4de8c1" stroke-opacity=".35" stroke-width="2">
<path d="M600 325 L600 128"/><path d="M600 325 L982 225"/><path d="M600 325 L982 470"/>
<path d="M600 325 L600 560"/><path d="M600 325 L218 470"/><path d="M600 325 L218 225"/>
</g>
<rect x="470" y="267" width="260" height="116" rx="24" fill="#0c1018" stroke="#2ee6b2" stroke-opacity=".45"/>
<text x="600" y="309" fill="#35e8b4" font-family="Arial,sans-serif" font-size="25" font-weight="700" text-anchor="middle">BREAK RESOLVED</text>
<text x="600" y="338" fill="#9aa5b5" font-family="Arial,sans-serif" font-size="14" text-anchor="middle">Evidence captured · Audit trail created</text>
<text x="600" y="361" fill="#667386" font-family="Arial,sans-serif" font-size="13" text-anchor="middle">From break to verified resolution</text>
<rect x="430" y="35" width="340" height="125" rx="18" fill="#111620" stroke="#5b6473" stroke-opacity=".55"/>
<circle cx="458" cy="65" r="9" fill="#35d9ff" opacity=".9"/>
<text x="478" y="70" fill="#8792a5" font-family="Arial,sans-serif" font-size="11" font-weight="700">AGENT 1 · TRIAGE</text>
<text x="450" y="103" fill="#eef2f7" font-family="Arial,sans-serif" font-size="17" font-weight="700">Routes &amp; prioritizes</text>
<text x="450" y="131" fill="#35d9ff" font-family="Arial,sans-serif" font-size="12" font-weight="700">SETTLEMENTS DESK</text>
<rect x="845" y="165" width="310" height="125" rx="18" fill="#111620" stroke="#5b6473" stroke-opacity=".55"/>
<circle cx="873" cy="195" r="9" fill="#a78bfa" opacity=".9"/>
<text x="893" y="200" fill="#8792a5" font-family="Arial,sans-serif" font-size="11" font-weight="700">AGENT 2 · INVESTIGATE</text>
<text x="865" y="233" fill="#eef2f7" font-family="Arial,sans-serif" font-size="17" font-weight="700">Evidence + precedents</text>
<text x="865" y="261" fill="#a78bfa" font-family="Arial,sans-serif" font-size="12" font-weight="700">3 RELATED CASES</text>
<rect x="845" y="410" width="310" height="125" rx="18" fill="#111620" stroke="#5b6473" stroke-opacity=".55"/>
<circle cx="873" cy="440" r="9" fill="#b8f238" opacity=".9"/>
<text x="893" y="445" fill="#8792a5" font-family="Arial,sans-serif" font-size="11" font-weight="700">AGENT 3 · DIAGNOSE</text>
<text x="865" y="478" fill="#eef2f7" font-family="Arial,sans-serif" font-size="17" font-weight="700">Root cause + confidence</text>
<text x="865" y="506" fill="#b8f238" font-family="Arial,sans-serif" font-size="12" font-weight="700">CAUSE IDENTIFIED</text>
<rect x="430" y="500" width="340" height="125" rx="18" fill="#111620" stroke="#5b6473" stroke-opacity=".55"/>
<circle cx="458" cy="530" r="9" fill="#ff64c8" opacity=".9"/>
<text x="478" y="535" fill="#8792a5" font-family="Arial,sans-serif" font-size="11" font-weight="700">AGENT 4 · PROPOSE</text>
<text x="450" y="568" fill="#eef2f7" font-family="Arial,sans-serif" font-size="17" font-weight="700">Exposure + controlled fix</text>
<text x="450" y="596" fill="#ff64c8" font-family="Arial,sans-serif" font-size="12" font-weight="700">NEEDS APPROVAL</text>
<rect x="45" y="410" width="310" height="125" rx="18" fill="#111620" stroke="#5b6473" stroke-opacity=".55"/>
<circle cx="73" cy="440" r="9" fill="#ffb347" opacity=".9"/>
<text x="93" y="445" fill="#8792a5" font-family="Arial,sans-serif" font-size="11" font-weight="700">CONTROL GATE</text>
<text x="65" y="478" fill="#eef2f7" font-family="Arial,sans-serif" font-size="17" font-weight="700">Human authorization</text>
<text x="65" y="506" fill="#ffb347" font-family="Arial,sans-serif" font-size="12" font-weight="700">APPROVED</text>
<rect x="45" y="165" width="310" height="125" rx="18" fill="#111620" stroke="#5b6473" stroke-opacity=".55"/>
<circle cx="73" cy="195" r="9" fill="#39e6a8" opacity=".9"/>
<text x="93" y="200" fill="#8792a5" font-family="Arial,sans-serif" font-size="11" font-weight="700">AGENT 5 · VERIFY</text>
<text x="65" y="233" fill="#eef2f7" font-family="Arial,sans-serif" font-size="17" font-weight="700">Re-check + close</text>
<text x="65" y="261" fill="#39e6a8" font-family="Arial,sans-serif" font-size="12" font-weight="700">CLOSED</text>
<text x="600" y="25" fill="#e8edf5" font-family="Arial,sans-serif" font-size="16" font-weight="700" text-anchor="middle">RESOLVIA · INVESTMENT BANKING EXCEPTION INTELLIGENCE &amp; RESOLUTION</text>
<text x="600" y="610" fill="#697589" font-family="Arial,sans-serif" font-size="12" text-anchor="middle">AI investigates · Humans authorize · Systems execute · AI validates</text>
</svg>